# xmcd
#
# Track frame offsets: 
#        150
#        25793
#        46642
#        67233
#        96783
#        120547
#        136369
#        162553
#        179057
#        201123
#        218385
#        236672
#        252692
#        268773
#
# Disc length: 3893 seconds
#
# Revision: 0
# Processed by: cddbd v1.5.2PL0 Copyright (c) Steve Scherf et al.
# Submitted via: ExactAudioCopy v1.3
#
DISCID=d00f330e
DTITLE=Robin Barrett and Coyote Kings - Howl
DYEAR=2015
DGENRE=Blues Rock
TTITLE0=Howl
TTITLE1=Good Thing
TTITLE2=That's Rude
TTITLE3=Waiting To Be Free
TTITLE4=All Eased Up
TTITLE5=Lowdown
TTITLE6=Which Way To Go
TTITLE7=Jackhammer Slow Jammer
TTITLE8=Bomb Inna Backseat
TTITLE9=Party
TTITLE10=Dark Dark Night
TTITLE11=Crazy In The Head
TTITLE12=Naughty Little Girl
TTITLE13=Crack The Whip
EXTD=
EXTT0=
EXTT1=
EXTT2=
EXTT3=
EXTT4=
EXTT5=
EXTT6=
EXTT7=
EXTT8=
EXTT9=
EXTT10=
EXTT11=
EXTT12=
EXTT13=
PLAYORDER=
